<svg width="126" height="126" viewBox="0 0 126 126" fill="none" xmlns="http://www.w3.org/2000/svg">
<circle cx="62.8325" cy="62.8325" r="62.8325" fill="url(#paint0_linear_1_69)"/>
<path d="M77.9928 46.3278C66.681 46.3278 42.2135 43.3867 42.2135 43.3867C42.2135 43.3867 37.3212 48.7683 34.4932 51.5963C29.2248 56.8647 29.6829 63.5331 28.9844 71.8501C29.8526 94.9658 44.6512 113.384 62.8378 113.384C80.9198 113.384 95.6591 95.1722 96.6743 72.2347C95.6789 61.9692 88.7673 46.3278 77.9928 46.3278Z" fill="#F7DECE"/>
<path d="M62.8393 102.069C56.2021 102.069 52.7293 98.7887 52.356 98.4126C51.822 97.8861 51.519 97.169 51.5137 96.4191C51.5084 95.6692 51.8013 94.9479 52.3278 94.4138C52.8543 93.8798 53.5714 93.5768 54.3213 93.5715C55.0712 93.5662 55.7925 93.8591 56.3265 94.3856C56.4707 94.5185 58.6058 96.4132 62.8393 96.4132C67.1349 96.4132 69.2672 94.4619 69.3577 94.3799C69.9008 93.8711 70.6213 93.5949 71.3653 93.6102C72.1093 93.6256 72.8178 93.9312 73.3395 94.4619C73.8569 94.9903 74.1452 95.7012 74.1421 96.4407C74.1389 97.1802 73.8444 97.8887 73.3225 98.4126C72.9492 98.7887 69.4765 102.069 62.8393 102.069ZM65.6672 87.9293H60.0113C59.2613 87.9293 58.542 87.6314 58.0117 87.1011C57.4813 86.5707 57.1834 85.8514 57.1834 85.1014C57.1834 84.3514 57.4813 83.6321 58.0117 83.1017C58.542 82.5714 59.2613 82.2734 60.0113 82.2734H65.6672C66.4173 82.2734 67.1366 82.5714 67.6669 83.1017C68.1972 83.6321 68.4952 84.3514 68.4952 85.1014C68.4952 85.8514 68.1972 86.5707 67.6669 87.1011C67.1366 87.6314 66.4173 87.9293 65.6672 87.9293Z" fill="#C1694F"/>
<path d="M48.699 76.6165C47.949 76.6165 47.2297 76.3186 46.6994 75.7882C46.169 75.2579 45.8711 74.5386 45.8711 73.7886V68.1326C45.8711 67.3826 46.169 66.6633 46.6994 66.133C47.2297 65.6026 47.949 65.3047 48.699 65.3047C49.4491 65.3047 50.1684 65.6026 50.6987 66.133C51.2291 66.6633 51.527 67.3826 51.527 68.1326V73.7886C51.527 74.5386 51.2291 75.2579 50.6987 75.7882C50.1684 76.3186 49.4491 76.6165 48.699 76.6165ZM76.9786 76.6165C76.2286 76.6165 75.5093 76.3186 74.9789 75.7882C74.4486 75.2579 74.1506 74.5386 74.1506 73.7886V68.1326C74.1506 67.3826 74.4486 66.6633 74.9789 66.133C75.5093 65.6026 76.2286 65.3047 76.9786 65.3047C77.7286 65.3047 78.4479 65.6026 78.9783 66.133C79.5086 66.6633 79.8066 67.3826 79.8066 68.1326V73.7886C79.8066 74.5386 79.5086 75.2579 78.9783 75.7882C78.4479 76.3186 77.7286 76.6165 76.9786 76.6165Z" fill="#662113"/>
<path d="M62.8323 23.1211C86.0356 23.1211 100.532 40.2415 100.532 54.5086C100.532 68.7728 97.6303 74.4852 94.7316 68.7728C91.8301 63.0688 88.9315 54.534 88.9315 54.534C88.9315 54.534 79.0959 60.9054 71.3897 51.6523C71.3897 51.6523 74.4354 68.7728 57.0321 51.6523C57.0321 51.6523 59.9336 63.0688 42.5332 48.8018C42.5332 48.8018 33.8316 54.5086 30.9329 68.7728C30.1298 72.7347 25.1328 68.7728 25.1328 54.5086C25.13 40.2415 36.7303 23.1211 62.8323 23.1211Z" fill="#577CFF"/>
<circle cx="78.9892" cy="87.7451" r="1.07713" fill="#FF9494"/>
<circle cx="80.605" cy="90.437" r="0.538564" fill="#FF9494"/>
<circle cx="78.4497" cy="93.6704" r="1.61569" fill="#FF9494"/>
<circle cx="83.2978" cy="94.206" r="1.07713" fill="#FF9494"/>
<circle cx="85.9887" cy="90.436" r="1.61569" fill="#FF9494"/>
<defs>
<linearGradient id="paint0_linear_1_69" x1="62.8325" y1="0" x2="62.8325" y2="125.665" gradientUnits="userSpaceOnUse">
<stop stop-color="#AFC1DC"/>
<stop offset="1" stop-color="#E2E5ED"/>
</linearGradient>
</defs>
</svg>
