<svg width="126" height="126" viewBox="0 0 126 126" fill="none" xmlns="http://www.w3.org/2000/svg">
<circle cx="62.8325" cy="62.8325" r="62.8325" fill="url(#paint0_linear_1_112)"/>
<path d="M64.2414 87.6246C64.2414 86.8564 63.9594 86.1312 63.3097 85.6477C62.8563 85.3102 62.4586 84.935 62.1462 84.5145C61.9649 84.2727 61.8113 84.0234 61.6803 83.7717C61.5317 83.4795 61.4134 83.1874 61.3202 82.8978C61.2145 82.5653 61.1389 82.238 61.0835 81.9182C61.0205 81.553 60.9878 81.2005 60.9652 80.8555C60.9425 80.4651 60.9375 80.0925 60.9375 79.7349C60.9375 79.405 60.9349 79.0852 60.9349 78.793V78.5814V77.1081V76.5239C60.9349 76.5239 60.9349 68.415 60.9349 65.5896C60.9349 64.2524 60.5495 63.0159 59.3661 61.8323C56.7244 59.1906 52.6674 60.213 52.4257 60.135L43.2441 62.3662C45.6213 65.6047 48.9454 68.1934 52.9922 69.6743V73.0865C39.2929 76.9394 29.3457 88.7954 29.3457 105.527H42.3525H51.3707V103.575C51.3707 102.55 51.4235 101.613 51.5344 100.752C51.6427 99.8885 51.8115 99.0977 52.0482 98.3724C52.2068 97.8889 52.3983 97.4331 52.6225 97.005C52.9221 96.4334 53.2899 95.9172 53.7179 95.4638C53.9647 95.2045 55.7628 93.1797 58.3667 93.1797C62.5517 93.18 64.2414 91.0294 64.2414 87.6246Z" fill="#F7DECE"/>
<path d="M71.559 72.7262V67.6745C75.4245 65.2293 79.197 57.8257 79.197 48.9136V43.0963C78.6279 31.4469 68.721 22.4642 57.0716 23.0334C45.8577 23.5824 37.1169 32.7866 36.9934 43.8669L32.3548 50.233C31.977 50.7341 31.7957 51.2832 32.0955 51.8599C32.4053 52.4467 33.0575 52.555 33.5863 52.6356L37.4065 53.2172L37.7665 56.8435C37.7665 56.8435 52.5739 56.899 54.9637 56.899C65.0216 56.899 64.4601 59.6388 64.4601 65.5895C64.4601 68.4149 64.4601 76.0126 64.4601 76.0126V76.3576C64.4601 76.685 64.4551 77.0023 64.4551 77.3019C64.4551 77.6696 64.4854 78.0146 64.4854 78.3218C64.4854 78.9715 65.0973 79.664 65.1905 79.7773C65.2433 79.8403 65.3063 79.9008 65.3819 79.9662C65.4675 80.0368 65.5734 80.1072 65.7093 80.1802C65.8629 80.2658 66.0568 80.349 66.2985 80.427C66.5756 80.5151 66.9205 80.5932 67.3335 80.6536C67.6559 80.6965 68.0235 80.7316 68.439 80.7467C69.187 80.7065 70.0054 80.7543 70.8439 80.9482C76.3943 82.2224 80.3126 90.9357 74.7573 97.6972C69.1995 104.459 61.1008 102.114 57.8019 100.18C57.0036 99.7142 55.6009 98.9688 55.339 99.9938C55.2307 100.417 55.1552 100.905 55.0947 101.454C55.0293 102.082 54.9914 102.787 54.994 103.575V105.526H81.1284H96.6032C96.603 88.2311 85.9735 76.146 71.559 72.7262Z" fill="#F7DECE"/>
<mask id="mask0_1_112" style="mask-type:alpha" maskUnits="userSpaceOnUse" x="29" y="23" width="68" height="83">
<path d="M64.2431 87.6244C64.2431 86.8563 63.9611 86.131 63.3114 85.6475C62.8581 85.3101 62.4603 84.9349 62.1479 84.5144C61.9666 84.2726 61.813 84.0233 61.682 83.7715C61.5334 83.4793 61.4151 83.1873 61.322 82.8977C61.2162 82.5652 61.1406 82.2379 61.0852 81.9181C61.0222 81.5529 60.9895 81.2004 60.9669 80.8554C60.9442 80.465 60.9392 80.0924 60.9392 79.7348C60.9392 79.4048 60.9366 79.0851 60.9366 78.7929V78.5813V77.108V76.5238C60.9366 76.5238 60.9366 68.4149 60.9366 65.5895C60.9366 64.2523 60.5512 63.0158 59.3678 61.8322C56.7261 59.1904 52.6691 60.2129 52.4274 60.1349L43.2458 62.3661C45.623 65.6046 48.9471 68.1933 52.9939 69.6741V73.0864C39.2946 76.9393 29.3474 88.7953 29.3474 105.527H42.3542H51.3724V103.575C51.3724 102.55 51.4252 101.613 51.5361 100.752C51.6444 99.8884 51.8132 99.0975 52.0499 98.3723C52.2085 97.8888 52.4 97.433 52.6242 97.0049C52.9238 96.4333 53.2916 95.917 53.7196 95.4637C53.9664 95.2043 55.7645 93.1796 58.3684 93.1796C62.5534 93.1799 64.2431 91.0293 64.2431 87.6244Z" fill="white"/>
<path d="M71.5607 72.7261V67.6744C75.4262 65.2292 79.1987 57.8256 79.1987 48.9134V43.0962C78.6296 31.4468 68.7227 22.4641 57.0733 23.0333C45.8594 23.5823 37.1186 32.7864 36.9951 43.8668L32.3565 50.2329C31.9787 50.734 31.7974 51.2831 32.0972 51.8598C32.407 52.4466 33.0592 52.5549 33.588 52.6355L37.4082 53.2171L37.7682 56.8434C37.7682 56.8434 52.5756 56.8988 54.9654 56.8988C65.0233 56.8988 64.4618 59.6387 64.4618 65.5894C64.4618 68.4148 64.4618 76.0125 64.4618 76.0125V76.3575C64.4618 76.6849 64.4568 77.0022 64.4568 77.3018C64.4568 77.6694 64.4871 78.0145 64.4871 78.3217C64.4871 78.9714 65.099 79.6639 65.1922 79.7772C65.245 79.8402 65.3081 79.9007 65.3836 79.9661C65.4692 80.0367 65.5751 80.1071 65.711 80.1801C65.8646 80.2657 66.0585 80.3489 66.3002 80.4269C66.5773 80.515 66.9222 80.593 67.3352 80.6535C67.6576 80.6963 68.0252 80.7315 68.4407 80.7466C69.1887 80.7063 70.0071 80.7542 70.8456 80.9481C76.396 82.2223 80.3143 90.9355 74.759 97.697C69.2012 104.459 61.1025 102.114 57.8036 100.18C57.0053 99.7141 55.6026 98.9687 55.3408 99.9937C55.2324 100.417 55.1569 100.905 55.0964 101.454C55.031 102.081 54.9931 102.787 54.9957 103.575V105.526H81.1301H96.6049C96.6047 88.231 85.9752 76.1459 71.5607 72.7261Z" fill="#F7DECE"/>
</mask>
<g mask="url(#mask0_1_112)">
<rect x="29.3474" y="72.5663" width="67.2573" height="33.6286" fill="#577CFF"/>
</g>
<defs>
<linearGradient id="paint0_linear_1_112" x1="62.8325" y1="0" x2="62.8325" y2="125.665" gradientUnits="userSpaceOnUse">
<stop stop-color="#AFC1DC"/>
<stop offset="1" stop-color="#E2E5ED"/>
</linearGradient>
</defs>
</svg>
