<svg width="126" height="126" viewBox="0 0 126 126" fill="none" xmlns="http://www.w3.org/2000/svg">
<circle cx="62.8325" cy="62.8325" r="62.8325" fill="url(#paint0_linear_1_45)"/>
<mask id="mask0_1_45" style="mask-type:alpha" maskUnits="userSpaceOnUse" x="0" y="0" width="126" height="126">
<circle cx="62.8325" cy="62.8325" r="62.8325" fill="url(#paint1_linear_1_45)"/>
</mask>
<g mask="url(#mask0_1_45)">
<path d="M76.8039 65.8867H63.8434C58.6143 65.8867 54.123 70.3809 54.123 75.6071V130.695H85.1944V104.576L86.5272 99.4662V75.6071C86.5272 70.378 82.033 65.8867 76.8039 65.8867Z" fill="#577CFF"/>
<path d="M64.782 73.8242C61.3014 73.8242 57.9633 75.2069 55.5021 77.6681C53.0409 80.1293 51.6582 83.4674 51.6582 86.948C51.6582 90.4287 53.0409 93.7668 55.5021 96.2279C57.9633 98.6891 61.3014 100.072 64.782 100.072V73.8242Z" fill="#0072DB"/>
<path d="M64.7836 76.7422C62.0764 76.7422 59.4801 77.8176 57.5659 79.7319C55.6516 81.6461 54.5762 84.2424 54.5762 86.9496C54.5762 89.6568 55.6516 92.2531 57.5659 94.1673C59.4801 96.0816 62.0764 97.157 64.7836 97.157V76.7422Z" fill="#577CFF"/>
<path d="M70.616 73.8242C67.1353 73.8242 63.7973 75.2069 61.3361 77.6681C58.8749 80.1293 57.4922 83.4674 57.4922 86.948C57.4922 90.4287 58.8749 93.7668 61.3361 96.2279C63.7973 98.6891 67.1353 100.072 70.616 100.072V73.8242Z" fill="#0072DB"/>
<path d="M70.6156 76.7422C67.9084 76.7422 65.3121 77.8176 63.3979 79.7319C61.4836 81.6461 60.4082 84.2424 60.4082 86.9496C60.4082 89.6568 61.4836 92.2531 63.3979 94.1673C65.3121 96.0816 67.9084 97.157 70.6156 97.157V76.7422Z" fill="#577CFF"/>
<path d="M46.7411 130.693H67.605V89.1341C66.2652 88.9 64.9083 88.778 63.5483 88.7695C57.0921 88.7695 50.9003 91.3343 46.335 95.8995C41.7698 100.465 39.2051 106.657 39.2051 113.113C39.2051 120.03 42.104 126.26 46.7411 130.693Z" fill="#0072DB"/>
<path d="M67.0845 78.6986V91.7962C65.9161 91.5926 64.7329 91.4863 63.5469 91.4783C60.7054 91.4779 57.8917 92.0373 55.2664 93.1245C52.6412 94.2117 50.2558 95.8055 48.2466 97.8147C46.2373 99.8239 44.6436 102.209 43.5564 104.835C42.4692 107.46 41.9098 110.274 41.9102 113.115C41.9104 116.555 42.7323 119.945 44.3074 123.002C45.8825 126.06 48.1652 128.698 50.9656 130.695H82.1594V70.4219L67.0845 78.6986Z" fill="#577CFF"/>
<path d="M83.5596 72.3672L97.7042 87.2817L85.1987 100.438L85.1928 109.321L73.7022 117.119L66 105.048L82.4631 88.1041L76.8082 82.4958L83.5596 72.3672Z" fill="#0072DB"/>
<path d="M83.5562 68.7227L99.4914 85.3286C99.4914 85.3286 105.024 89.7849 99.4914 95.049C96.1696 98.2075 75.3552 112.227 75.3552 112.227L68.875 105.746L86.5309 88.5688L76.8076 78.8484L83.5562 68.7227Z" fill="#577CFF"/>
<path d="M71.5802 105.998C68.3021 104.438 65.1932 104.653 62.1864 106.412C60.7486 107.255 60.1624 108.83 62.3643 109.352C64.575 109.868 71.5802 105.998 71.5802 105.998Z" fill="#EEC2AD"/>
<path d="M75.9987 111.591C76.4041 116.738 69.5068 121.548 64.2748 120.921C60.536 120.471 57.2813 110.398 61.7171 109.1C65.6718 107.946 66.7654 104.353 71.4579 105.694C75.1851 106.761 75.85 109.614 75.9987 111.591Z" fill="#F7DECE"/>
<path d="M72.5387 113.58L71.9204 112.294C71.9204 112.294 69.6719 115.639 66.5455 116.931C64.1745 117.899 62.1767 117.995 61.1297 117.823C61.5789 118.678 61.5876 118.824 62.1767 119.369C65.4343 119.483 70.6401 117.736 72.5387 113.58ZM66.073 113.466C68.9603 111.489 69.8031 109.599 69.8031 109.599L68.8611 108.406C68.8611 108.406 65.5218 113.586 59.5957 113.32C59.6394 114.044 59.5811 114.184 59.794 114.924C60.5902 114.951 63.7282 115.07 66.073 113.466Z" fill="#E0AA94"/>
<path d="M57.7062 39.7271C58.1076 40.6819 58.3169 41.7064 58.3221 42.742C58.3274 43.7777 58.1285 44.8042 57.7369 45.763C57.3453 46.7218 56.7685 47.594 56.0397 48.3298C55.3108 49.0655 54.4441 49.6505 53.4891 50.0512C52.5311 50.4459 51.5047 50.648 50.4686 50.6458C49.4325 50.6437 48.407 50.4373 47.4506 50.0387C46.4943 49.64 45.6259 49.0567 44.895 48.3223C44.1642 47.5878 43.5853 46.7166 43.1913 45.7583C42.7901 44.8032 42.5811 43.7783 42.5763 42.7424C42.5714 41.7065 42.7708 40.6798 43.163 39.721C43.5552 38.7621 44.1325 37.89 44.862 37.1545C45.5914 36.4189 46.4587 35.8343 47.4143 35.4342C48.3718 35.0396 49.3978 34.8376 50.4335 34.8399C51.4692 34.8421 52.4943 35.0485 53.4502 35.4472C54.406 35.8459 55.2739 36.4291 56.0042 37.1635C56.7345 37.8979 57.3129 38.769 57.7062 39.7271Z" fill="#292F33"/>
<path d="M73.4845 60.1156C76.9929 55.9306 79.0869 50.5819 77.2875 46.2598L74.3128 39.0942C58.2317 45.1487 51.6144 36.8398 51.6144 36.8398C51.6144 36.8398 54.7641 44.4167 48.0039 48.275L51.5998 56.9309C54.5396 64.0003 58.5467 69.0632 65.6073 66.1613L65.8464 67.1121C66.4472 69.4948 66.0068 71.4225 69.5153 71.5567C71.968 71.65 75.281 67.2696 74.6802 64.8869L73.4845 60.1156Z" fill="#F7DECE"/>
<path d="M92.2275 41.4866C94.6306 35.0647 88.8474 30.1826 83.9245 29.681C80.9381 29.3777 78.2434 31.2821 76.931 33.5627C70.9495 23.5478 62.0019 25.9072 56.3091 27.9107C50.278 30.0339 41.3072 36.2779 44.8273 42.9885C48.3473 49.7021 60.1034 46.8149 60.1034 46.8149L64.3584 53.6742C63.2093 47.7714 67.129 46.4532 68.94 47.7394C70.8474 49.0955 69.5817 53.4438 70.4507 55.1587C71.3198 56.8735 74.3296 59.2241 74.3296 59.2241C76.1786 56.8735 82.0143 48.7893 79.2874 38.9989C80.4161 38.576 82.1105 38.8618 83.4783 39.5763C86.9547 41.3816 84.2162 50.3758 89.0515 53.2193C93.6857 55.9461 96.4038 52.1956 96.4038 52.1956C91.6559 52.3531 89.9323 47.6256 92.2275 41.4866Z" fill="#292F33"/>
<path d="M54.1147 60.0657L53.2164 60.439C53.1223 60.4809 53.0207 60.5036 52.9177 60.5057C52.8146 60.5079 52.7122 60.4894 52.6164 60.4513C52.5207 60.4133 52.4335 60.3565 52.36 60.2842C52.2865 60.212 52.2282 60.1257 52.1885 60.0306C52.1488 59.9355 52.1286 59.8334 52.1289 59.7304C52.1293 59.6273 52.1502 59.5254 52.1906 59.4305C52.2309 59.3357 52.2898 59.2499 52.3638 59.1782C52.4378 59.1064 52.5254 59.0502 52.6215 59.0128L53.5226 58.6395C53.6172 58.5952 53.7197 58.5705 53.8241 58.5669C53.9284 58.5633 54.0324 58.5808 54.1298 58.6185C54.2272 58.6562 54.3159 58.7133 54.3907 58.7862C54.4654 58.8592 54.5245 58.9465 54.5646 59.0429C54.6046 59.1394 54.6247 59.2429 54.6236 59.3474C54.6225 59.4518 54.6003 59.5549 54.5582 59.6505C54.5162 59.746 54.4552 59.8321 54.3789 59.9035C54.3027 59.9748 54.2128 60.03 54.1147 60.0657Z" fill="#BF6952"/>
<path d="M54.5566 54.0241C54.1783 54.1807 53.7534 54.1808 53.375 54.0244C52.9967 53.868 52.6958 53.568 52.5385 53.19L51.9406 51.758C51.7832 51.379 51.7828 50.953 51.9395 50.5737C52.0962 50.1944 52.3972 49.8929 52.7762 49.7355C53.1552 49.5781 53.5812 49.5777 53.9605 49.7344C54.3398 49.8911 54.6413 50.1921 54.7987 50.5711L55.3936 52.0001C55.472 52.1879 55.5125 52.3893 55.5128 52.5928C55.5131 52.7963 55.4732 52.9979 55.3955 53.1859C55.3177 53.374 55.2036 53.5448 55.0596 53.6887C54.9157 53.8325 54.7447 53.9465 54.5566 54.0241Z" fill="#662113"/>
<path d="M55.3379 63.5675C56.0466 64.4278 56.8223 65.1453 57.6593 65.7052C60.7361 63.9291 60.952 61.2344 60.952 61.2344L55.4837 63.5063L55.3379 63.5675Z" fill="#DF1F32"/>
</g>
<defs>
<linearGradient id="paint0_linear_1_45" x1="62.8325" y1="0" x2="62.8325" y2="125.665" gradientUnits="userSpaceOnUse">
<stop stop-color="#AFC1DC"/>
<stop offset="1" stop-color="#E2E5ED"/>
</linearGradient>
<linearGradient id="paint1_linear_1_45" x1="62.8325" y1="0" x2="62.8325" y2="125.665" gradientUnits="userSpaceOnUse">
<stop stop-color="#AFC1DC"/>
<stop offset="1" stop-color="#E2E5ED"/>
</linearGradient>
</defs>
</svg>
