<svg width="126" height="126" viewBox="0 0 126 126" fill="none" xmlns="http://www.w3.org/2000/svg">
<circle cx="62.8325" cy="62.8325" r="62.8325" fill="url(#paint0_linear_1_96)"/>
<circle cx="65.8499" cy="54.7894" r="26.641" fill="#577CFF"/>
<path d="M72.4113 57.5123C71.0461 57.5123 69.9587 57.2492 69.0848 56.8438C67.7773 56.2384 66.9303 55.3054 66.3973 54.3738C66.1316 53.9107 65.9477 53.4501 65.8321 53.0448C65.7166 52.6407 65.6711 52.2849 65.6724 52.0728C65.6724 51.6674 65.3448 51.3398 64.9408 51.3398C64.5367 51.3398 64.209 51.6674 64.209 52.0728C64.209 52.336 64.2413 52.626 64.3058 52.9454C64.4184 53.5051 64.6277 54.1494 64.9729 54.8166C65.487 55.8114 66.3059 56.8571 67.5302 57.6492C67.8377 57.8519 68.1664 58.0331 68.5236 58.1943C68.5799 58.4371 68.659 58.8627 68.6579 59.3796C68.6579 59.754 68.6163 60.1703 68.5035 60.5985C68.3906 61.0267 68.2068 61.4617 67.9114 61.8871C67.6846 62.2213 67.7652 62.675 68.098 62.9046C68.4296 63.1343 68.8847 63.0525 69.1142 62.7196C69.5142 62.1435 69.768 61.5436 69.9184 60.973C70.0674 60.401 70.1197 59.8561 70.1197 59.3796C70.1197 59.142 70.1063 58.9177 70.0875 58.7165C70.7909 58.8789 71.5615 58.9755 72.4111 58.9755C72.8152 58.9755 73.1429 58.6481 73.1429 58.2439C73.1431 57.84 72.8155 57.5123 72.4113 57.5123Z" fill="#BCCBE1"/>
<path d="M75.6542 48.0959C75.3025 47.8999 74.8581 48.0207 74.6582 48.3739C74.4596 48.7242 74.5844 49.1699 74.9361 49.3699C75.4757 49.6786 75.8034 50.0195 76.0235 50.3727C75.1214 50.6893 74.324 50.821 73.6165 50.821C72.5841 50.8197 71.7399 50.5472 71.0256 50.1284C70.3154 49.7109 69.7422 49.1378 69.306 48.5457C68.5879 47.5657 67.6549 46.6946 66.5542 46.0583C65.4534 45.4247 64.1821 45.0273 62.8156 45.0273C61.6196 45.0273 60.359 45.3361 59.108 46.022C58.5978 46.3014 58.1536 46.6288 57.7683 46.9873C56.2473 47.5726 54.9384 47.7847 53.8284 47.7847C52.2485 47.7819 51.0697 47.3604 50.2805 46.9443C49.8872 46.7349 49.5931 46.5281 49.4026 46.3778C49.3073 46.3014 49.2362 46.2423 49.1931 46.202L49.1502 46.1604L49.142 46.1524C48.8615 45.8652 48.4009 45.857 48.1096 46.1361C47.8198 46.4166 47.8116 46.8785 48.0909 47.1698C48.1338 47.2116 48.6346 47.7242 49.597 48.2358C50.0184 48.4586 50.5339 48.6774 51.1301 48.856C50.9718 49.0787 50.7554 49.4063 50.5194 49.8196C50.067 50.6185 49.5474 51.7406 49.2843 53.0604C49.2024 53.4589 49.4602 53.8429 49.8562 53.9221C50.2522 54.0027 50.6361 53.7435 50.7152 53.3475C50.9369 52.2348 51.3931 51.244 51.7918 50.5419C51.9919 50.1875 52.1757 49.9097 52.3087 49.7191C52.3758 49.6264 52.4281 49.5526 52.4644 49.5069C52.4818 49.4841 52.4954 49.4681 52.5032 49.4573L52.514 49.4466L52.5153 49.4439C52.5812 49.362 52.6255 49.2693 52.6509 49.1701C53.0227 49.2184 53.4134 49.2453 53.8282 49.2453C54.5961 49.2453 55.4391 49.1541 56.3465 48.9486C55.8941 49.9166 55.7102 50.9287 55.7087 51.855C55.7115 52.7866 55.8887 53.635 56.207 54.309C56.38 54.6728 56.8164 54.8299 57.1801 54.6566C57.5439 54.4833 57.701 54.0486 57.5277 53.6833C57.325 53.2616 57.1692 52.5932 57.172 51.8549C57.1707 51.0575 57.3451 50.1823 57.7573 49.3808C58.172 48.5808 58.8137 47.8518 59.8112 47.3041C60.8623 46.7267 61.8691 46.4906 62.8155 46.4878C63.8962 46.4906 64.9135 46.8018 65.8237 47.3255C66.7312 47.8477 67.5232 48.586 68.1272 49.4089C68.6588 50.1351 69.3703 50.8492 70.2845 51.3889C71.1973 51.9286 72.3194 52.2844 73.6164 52.2816C74.4741 52.2816 75.4057 52.1287 76.4098 51.7878L76.4111 51.8389C76.4111 52.1972 76.3548 52.5233 76.2996 52.7544C76.2729 52.8672 76.2446 52.9597 76.2246 53.0175C76.2151 53.047 76.2084 53.0686 76.203 53.0819L76.1991 53.0927V53.094C76.0516 53.4684 76.2313 53.8914 76.6058 54.0417C76.9816 54.1907 77.4073 54.0082 77.5576 53.635C77.5776 53.5826 77.8689 52.851 77.873 51.839C77.873 51.259 77.7723 50.5772 77.4327 49.9047C77.0974 49.2289 76.5187 48.5832 75.6542 48.0959Z" fill="#BCCBE1"/>
<path d="M56.8853 42.6345C57.3889 42.0411 58.1044 41.574 58.919 41.2612C59.7339 40.9443 60.6414 40.7873 61.4925 40.7873C62.3194 40.7873 63.0913 40.9389 63.6552 41.2034C64.0243 41.3725 64.4578 41.2116 64.6256 40.8463C64.7948 40.4798 64.635 40.0436 64.2698 39.8773C63.4536 39.4987 62.4924 39.3296 61.4923 39.3281C60.4642 39.3281 59.393 39.512 58.3927 39.8961C57.3967 40.2799 56.4704 40.8666 55.7724 41.6922C55.5094 41.9995 55.5482 42.46 55.8557 42.7203C56.1644 42.9834 56.6276 42.9433 56.8853 42.6345Z" fill="#BCCBE1"/>
<path d="M68.1833 23.1957C50.1631 22.0868 34.9887 33.4234 35.3322 51.8934L35.3188 53.5649L27.4899 67.3903C27.0684 68.1353 27.0307 69.0387 27.3879 69.8174C27.745 70.596 28.4538 71.1557 29.2941 71.3222L34.1322 72.6565L35.6517 87.3155C35.692 88.729 36.3204 90.0608 37.3862 90.9884C38.452 91.9174 39.859 92.3564 41.2631 92.1992L45.1265 92.5067C45.8808 92.4234 46.6354 92.6637 47.2004 93.1712C47.7655 93.676 48.0892 94.3994 48.0892 95.158V106.678H80.7779C80.7779 106.678 80.7779 101.092 80.7779 98.864C80.7779 96.6342 81.5483 91.5386 83.0062 89.2053C88.306 80.7321 96.9323 76.2243 98.3875 58.8484C99.8439 41.4697 89.4725 24.5073 68.1833 23.1957ZM89.9316 52.9942C89.1987 54.2051 88.0134 54.9594 86.7192 55.1823C86.322 55.2522 86.0534 55.628 86.1206 56.0267C86.1918 56.4239 86.5689 56.6939 86.9663 56.6227C87.263 56.5716 87.5556 56.4979 87.8443 56.4052C88.1557 57.0508 88.3114 57.7448 88.3114 58.4361C88.3114 59.1744 88.1356 59.9074 87.7986 60.5704C87.4629 61.2324 86.9663 61.8217 86.3138 62.2807C85.4936 62.8565 84.5606 63.1303 83.6345 63.1318C83.5607 63.1318 83.4881 63.1238 83.4156 63.1224C83.3995 63.0001 83.3846 62.8794 83.3632 62.7599V62.7584C83.2036 61.9114 82.872 61.1356 82.4196 60.4616L82.3645 60.3798L82.2894 60.3154C81.7363 59.8401 81.0019 59.0615 80.4355 58.2682C80.1496 57.8723 79.9067 57.4708 79.7429 57.1138C79.5777 56.7554 79.5012 56.4438 79.504 56.2599C79.504 56.178 79.516 56.1215 79.5322 56.084C79.5456 56.0478 79.559 56.0262 79.5872 55.9967C79.8718 55.7134 79.8718 55.2489 79.5872 54.9617C79.3013 54.6784 78.8396 54.6784 78.555 54.9617C78.375 55.1389 78.2406 55.3535 78.1589 55.5805C78.0743 55.8035 78.0433 56.0355 78.0433 56.2598C78.046 56.7658 78.199 57.2464 78.4138 57.7217C78.74 58.4319 79.2259 59.1366 79.7535 59.7809C80.2489 60.385 80.7738 60.9287 81.2464 61.3448C81.5726 61.8429 81.8101 62.4067 81.9269 63.0282C81.9753 63.2901 82.0007 63.5504 82.0061 63.7988V63.8042C82.0061 63.8363 82.0074 63.8687 82.0074 63.9034C82.0074 65.007 81.6141 66.0527 80.9388 66.8756C80.2623 67.6971 79.3106 68.2944 78.1816 68.5066C77.8875 68.5629 77.5949 68.5898 77.3075 68.5898C75.7571 68.5911 74.3233 67.8112 73.4616 66.5735C73.926 66.1023 74.3221 65.5506 74.6227 64.9236V64.9249C74.9973 64.1503 75.1946 63.3288 75.2295 62.5154C75.247 62.1127 74.9356 61.7717 74.5328 61.7543C74.1274 61.7355 73.7876 62.0495 73.7689 62.4523C73.7434 63.0724 73.5931 63.6939 73.3072 64.2873L73.3059 64.29C72.9984 64.9249 72.5715 65.4566 72.0614 65.8768L72.0587 65.8781C71.2184 66.564 70.1591 66.9426 69.076 66.9426C68.3941 66.9426 67.7014 66.7936 67.0435 66.4754C65.8261 65.8902 64.9804 64.8472 64.6059 63.6537H64.6045C64.4622 63.2013 64.3885 62.7248 64.3885 62.247C64.3885 61.5637 64.5375 60.8709 64.8555 60.2119C65.0315 59.8481 64.8771 59.4106 64.5133 59.2373C64.1509 59.0615 63.7146 59.2131 63.5387 59.5771C63.1253 60.4361 62.9252 61.3504 62.9252 62.2471C62.9252 62.682 62.9763 63.1116 63.0649 63.5317C62.4944 63.8432 61.8514 64.0431 61.156 64.0927H61.1547C61.0406 64.1009 60.9292 64.1061 60.8164 64.1061C59.7183 64.1061 58.7022 63.7249 57.8967 63.0791C57.192 62.5154 56.6524 61.7569 56.365 60.8735C56.8778 60.3676 57.3047 59.7729 57.6174 59.1137C57.7893 58.7485 57.6334 58.3136 57.2685 58.1417C56.9047 57.9686 56.4657 58.1243 56.2952 58.4907C56.0065 59.103 55.585 59.6466 55.0709 60.0802C54.338 60.699 53.4143 61.0964 52.3861 61.1704H52.3848C52.2708 61.1783 52.1593 61.1837 52.048 61.1837C49.7283 61.1837 47.7469 59.4695 47.4112 57.1768L47.4099 57.1701V57.1661C47.3912 57.056 47.3791 56.9419 47.3711 56.8238C47.3631 56.7123 47.359 56.5969 47.359 56.4841C47.359 56.1901 47.3872 55.8989 47.4396 55.6182C47.5108 55.2208 47.2492 54.8396 46.8518 54.7658C46.4572 54.6947 46.0746 54.9538 45.9994 55.3511C45.9335 55.7188 45.8974 56.0974 45.8974 56.484L45.8987 56.5282C45.241 56.4544 44.6033 56.2436 44.0327 55.9094C43.3104 55.488 42.697 54.8705 42.2728 54.0783C41.8957 53.3708 41.717 52.6178 41.717 51.8714C41.717 50.9075 42.0164 49.9613 42.5682 49.1705C42.7817 49.4711 43.0219 49.7544 43.2916 50.0201C43.9092 50.6255 44.6233 51.0738 45.3791 51.3664C45.7563 51.5143 46.178 51.3261 46.3242 50.9477C46.4719 50.5718 46.2826 50.149 45.908 50.0026C45.3295 49.7797 44.787 49.4389 44.3172 48.9771V48.9758C43.901 48.5704 43.5789 48.1085 43.3493 47.6132C43.054 46.9849 42.9063 46.3018 42.9063 45.6239C42.9075 44.4345 43.3506 43.2559 44.2446 42.3431C45.0057 41.5671 45.9642 41.1133 46.9589 40.9752H46.9602H46.9628C47.1749 40.9483 47.3869 40.9336 47.5991 40.9336C48.7858 40.9349 49.9658 41.382 50.8813 42.2747C51.17 42.5553 51.6317 42.5525 51.915 42.2627C52.197 41.9754 52.1916 41.5136 51.9042 41.2303C50.739 40.0892 49.2302 39.5053 47.7198 39.4785C47.8902 38.779 48.2179 38.1282 48.677 37.5804C49.3146 36.8207 50.1859 36.2594 51.2276 36.0192C51.5821 35.9401 51.931 35.8998 52.2786 35.8998C52.8907 35.8998 53.4867 36.0231 54.0372 36.2461C53.8815 36.7911 53.7955 37.363 53.7955 37.9564C53.7955 38.359 54.1219 38.6852 54.5258 38.6852C54.9297 38.6852 55.256 38.359 55.256 37.9564C55.256 37.3173 55.3864 36.7066 55.6145 36.1522C55.9675 35.3038 56.565 34.5816 57.3153 34.0715C58.0683 33.5613 58.9692 33.2648 59.9477 33.2648C61.3572 33.2648 62.6152 33.8808 63.4769 34.8648C64.2031 35.6904 64.6395 36.7696 64.6395 37.9564C64.6395 38.359 64.9685 38.6852 65.3711 38.6852C65.7752 38.6852 66.104 38.359 66.104 37.9564C66.104 36.6058 65.6665 35.3534 64.9267 34.3399C65.3053 33.8164 65.7872 33.3707 66.3455 33.0405C67.0435 32.6298 67.8558 32.3922 68.7271 32.3922C69.7311 32.3922 70.6533 32.705 71.4144 33.2392C72.1784 33.7735 72.7744 34.5307 73.1114 35.4098H73.1101C73.3088 35.9321 73.4175 36.4931 73.4175 37.0852C73.4175 37.488 73.7464 37.8154 74.1491 37.8154C74.5519 37.8154 74.882 37.488 74.882 37.0852C74.882 36.4811 74.7894 35.8999 74.627 35.3482C75.4942 34.5428 76.642 34.0863 77.8273 34.0863C78.4461 34.0863 79.0744 34.2085 79.681 34.4675C80.5267 34.8341 81.2061 35.4126 81.6906 36.1188C82.1753 36.8262 82.4598 37.6558 82.5096 38.5148C82.5149 38.6034 82.519 38.6908 82.519 38.7792C82.5163 39.3995 82.394 40.0251 82.1337 40.6331C81.9741 41.0038 82.1458 41.4333 82.5163 41.5916C82.888 41.7514 83.3162 41.5808 83.4773 41.2104C83.7486 40.5794 83.9042 39.9283 83.9566 39.2747C84.6734 39.3256 85.3714 39.5431 85.9891 39.9082C86.6938 40.3244 87.2965 40.9337 87.7074 41.715C88.0671 42.3983 88.2361 43.1245 88.2376 43.844C88.2376 44.1729 88.1973 44.4991 88.1263 44.8186C87.6886 44.6468 87.2323 44.5314 86.7772 44.4642C86.3798 44.4092 86.0079 44.6884 85.9543 45.0884C85.8965 45.4886 86.1758 45.8576 86.5732 45.9127C87.0336 45.9783 87.4859 46.11 87.9182 46.314C87.9935 46.439 88.1089 46.5423 88.2538 46.6055C88.3424 46.6443 88.4377 46.6633 88.5304 46.6633C88.8002 46.8431 89.0458 47.0458 89.2648 47.2673L89.2661 47.2686C90.1439 48.1531 90.6151 49.3466 90.6151 50.5668C90.6149 51.3953 90.3961 52.233 89.9316 52.9942Z" fill="#F7DECE"/>
<path d="M82.3373 46.5326C81.9748 46.2197 81.5856 45.9633 81.1734 45.7835C80.7598 45.6009 80.3249 45.4922 79.8807 45.4922C79.4766 45.4922 79.1504 45.8197 79.1504 46.2238C79.1504 46.6279 79.4766 46.9541 79.8807 46.9541C80.1492 46.9541 80.4875 47.0468 80.8472 47.2536C81.3828 47.5609 81.9399 48.1139 82.3427 48.8039C82.7508 49.4953 83.0111 50.3155 83.0085 51.1652C83.0058 52.0982 82.7118 53.0729 81.9145 54.0406C81.6594 54.3507 81.7023 54.8125 82.0137 55.0689C82.3252 55.3281 82.7869 55.2824 83.0435 54.9736C84.0461 53.7614 84.4744 52.4191 84.4731 51.1652C84.4731 50.4028 84.3174 49.6725 84.0623 49.0066C83.6757 48.0092 83.0609 47.1579 82.3373 46.5326Z" fill="#C0CDE2"/>
<path d="M77.2818 43.2182C75.2722 43.2182 73.6599 42.4773 72.543 41.5094C71.9845 41.026 71.5576 40.4865 71.2771 39.9683C70.9925 39.4515 70.8635 38.9588 70.8663 38.5896C70.8663 38.187 70.5388 37.8595 70.136 37.8595C69.7319 37.8595 69.4044 38.187 69.4044 38.5896C69.407 39.2757 69.6219 39.9817 69.9924 40.6665C70.3831 41.3806 70.9523 42.0746 71.6732 42.6839C71.5281 42.8853 71.3282 43.1484 71.0703 43.4263C70.5145 44.0344 69.7119 44.7069 68.7519 45.0493C68.3748 45.1835 68.1747 45.6009 68.3103 45.9821C68.4458 46.3634 68.8621 46.5594 69.2446 46.4251C70.5455 45.958 71.5173 45.1056 72.1791 44.3792C72.4732 44.0571 72.7013 43.7605 72.8719 43.5242C74.08 44.2209 75.5741 44.6815 77.2816 44.6815C77.6857 44.6815 78.0117 44.3539 78.0117 43.9512C78.0119 43.5472 77.6857 43.2182 77.2818 43.2182Z" fill="#BCCBE1"/>
<defs>
<linearGradient id="paint0_linear_1_96" x1="62.8325" y1="0" x2="62.8325" y2="125.665" gradientUnits="userSpaceOnUse">
<stop stop-color="#AFC1DC"/>
<stop offset="1" stop-color="#E2E5ED"/>
</linearGradient>
</defs>
</svg>
