<svg width="126" height="126" viewBox="0 0 126 126" fill="none" xmlns="http://www.w3.org/2000/svg">
<circle cx="62.8325" cy="62.8325" r="62.8325" fill="url(#paint0_linear_1_83)"/>
<path d="M91.0443 69.9102H35.9336C29.9947 69.9102 25.1328 74.5876 25.1328 80.3126C25.1328 86.0302 29.9947 90.715 35.9336 90.715H91.0443C96.9833 90.715 101.845 86.0376 101.845 80.3126C101.852 74.5876 96.9906 69.9102 91.0443 69.9102Z" fill="#EDC391"/>
<path d="M92.8237 43.4631C85.7338 32.6771 76.5929 28.9883 63.3133 28.9883C50.0336 28.9883 40.8927 32.6697 33.8029 43.4631C28.609 51.3719 27.3548 63.8032 28.9558 76.6107C30.4977 88.9239 31.774 95.6818 39.4172 102.58C46.0571 108.57 55.0725 109.862 62.8042 109.862H63.8223C71.554 109.862 80.5769 108.57 87.2093 102.58C94.8525 95.6818 96.1288 88.9239 97.6707 76.6107C99.2717 63.8032 98.0175 51.3645 92.8237 43.4631Z" fill="#F7DECE"/>
<path d="M74.3032 44.6416C74.4065 44.5309 74.5098 44.4276 74.6131 44.3169C74.6869 44.2358 74.7607 44.1473 74.8344 44.0661C75.0041 43.8669 75.1664 43.6677 75.3213 43.4611L75.3877 43.3726C75.5353 43.1734 75.6681 42.9668 75.8009 42.7529C75.8378 42.6939 75.8747 42.6275 75.9116 42.5684C76.037 42.3545 76.1624 42.1405 76.2804 41.9118C76.3026 41.875 76.3173 41.8454 76.3321 41.8086C76.6124 41.2552 76.8559 40.6576 77.0551 40.0306L77.0772 39.9642C77.483 38.6583 77.7191 37.2049 77.7191 35.5671C77.7191 32.2915 76.5387 29.7019 74.7385 27.7468C74.7164 27.7247 74.7016 27.71 74.6869 27.6878C74.5467 27.5403 74.3991 27.3927 74.2516 27.2452L74.1631 27.1566C73.9913 26.9933 73.8142 26.8359 73.6319 26.6845C73.4843 26.5591 73.3368 26.441 73.1892 26.323C73.1523 26.2935 73.1154 26.2713 73.0859 26.2418L72.599 25.8877C72.5695 25.8729 72.5474 25.8508 72.5179 25.8361C71.9277 25.4377 71.3153 25.0835 70.6808 24.7811C70.6587 24.7663 70.6292 24.7589 70.6071 24.7442C70.4226 24.6556 70.2382 24.5745 70.0537 24.4933L69.8841 24.4196C69.7218 24.3532 69.5594 24.2868 69.3971 24.2277C69.3381 24.2056 69.2717 24.1835 69.2127 24.1613C69.0578 24.1023 68.9028 24.0507 68.7553 23.999L68.5561 23.9326C68.4012 23.881 68.2536 23.8367 68.0987 23.7925C68.0323 23.7703 67.9659 23.7556 67.8921 23.7334C67.7372 23.6892 67.5822 23.6523 67.4273 23.6154L67.2355 23.5711C67.0658 23.5342 66.8961 23.4974 66.7338 23.4605C66.6822 23.4531 66.6305 23.4383 66.5789 23.431C66.1436 23.335 65.7083 23.2686 65.2731 23.217C65.214 23.2096 65.155 23.2096 65.096 23.2022C64.9411 23.1875 64.7935 23.1727 64.6386 23.1654C64.5501 23.158 64.4689 23.158 64.3804 23.1506C64.2549 23.1432 64.1369 23.1358 64.0189 23.1358C63.923 23.1358 63.827 23.1285 63.7238 23.1285C63.6574 23.1285 63.591 23.1211 63.5319 23.1211H63.4582C63.1409 23.1211 62.8237 23.1358 62.5138 23.158C62.4548 23.1654 62.3958 23.1654 62.3368 23.1727C62.0195 23.2022 61.7097 23.2318 61.4146 23.2834C57.7922 23.8736 54.8633 25.777 53.0336 27.6362C51.9344 28.7502 51.2335 29.8495 51.0195 30.6389H51.0269C53.373 30.0413 56.4052 29.5175 59.7841 29.3404C64.3582 29.0232 68.1798 31.6275 67.9954 35.6261C67.9733 36.1057 67.9142 36.5557 67.8331 36.9762L67.8109 37.1016C67.7741 37.264 67.7298 37.4263 67.6855 37.5812C67.6634 37.655 67.6413 37.7287 67.6265 37.7951C67.5822 37.9279 67.538 38.0607 67.4863 38.1935C67.4568 38.2747 67.4199 38.3558 67.383 38.437C67.3314 38.555 67.2798 38.6657 67.2281 38.769C67.1839 38.8575 67.1396 38.9387 67.0879 39.0198C67.0363 39.1157 66.9773 39.2116 66.9183 39.3002C66.8592 39.3887 66.7928 39.4772 66.7338 39.5658C66.6822 39.6395 66.6305 39.7133 66.5715 39.7871C66.4756 39.9051 66.3723 40.0158 66.269 40.1191C66.2395 40.1486 66.21 40.1855 66.1805 40.215C66.0403 40.3552 65.8928 40.4806 65.7378 40.606C65.7083 40.6281 65.6714 40.6503 65.6419 40.6724C65.5164 40.77 65.3858 40.8611 65.2509 40.9454C65.2067 40.9675 65.1698 40.997 65.1255 41.0192C64.9927 41.1003 64.8599 41.1741 64.7271 41.2405C64.6828 41.2626 64.646 41.2847 64.6017 41.2995C64.4615 41.3659 64.314 41.4323 64.159 41.4913C64.1295 41.5061 64.0926 41.5208 64.0558 41.5282C63.8861 41.5946 63.7164 41.6536 63.5393 41.7053C63.5246 41.7126 63.5098 41.7126 63.4951 41.72C62.6983 41.9561 61.8425 42.0594 60.9719 42.0594C58.3455 42.0594 55.6232 41.0856 54.0591 39.6912C53.9299 39.5736 53.7617 39.5079 53.5869 39.5067C53.55 39.5067 53.5132 39.5215 53.4836 39.5289C53.4541 39.5363 53.4173 39.5363 53.3877 39.551C53.3435 39.5658 53.2992 39.5805 53.2549 39.6027C53.1812 39.6395 53.1221 39.6838 53.0631 39.7355C53.0484 39.7502 53.041 39.765 53.0262 39.7797C52.9746 39.8387 52.9303 39.9125 52.8934 39.9863C52.8861 40.001 52.8861 40.0084 52.8787 40.0232C52.8418 40.1191 52.8197 40.2297 52.8344 40.3478C53.0557 42.5758 54.4575 45.3646 57.7922 47.4598C60.9645 49.4591 67.6413 49.4813 72.3924 46.2277L72.5252 46.1392C72.6654 46.0359 72.813 45.9326 72.9531 45.8294C73.0122 45.7851 73.0786 45.7334 73.1376 45.6818C73.3442 45.5195 73.5433 45.3498 73.7352 45.1727L74.0229 44.9072C74.1262 44.826 74.2147 44.7301 74.3032 44.6416Z" fill="#312D2D"/>
<path d="M74.3032 44.6416C74.4065 44.5309 74.5098 44.4276 74.6131 44.3169C74.6869 44.2358 74.7607 44.1473 74.8344 44.0661C75.0041 43.8669 75.1664 43.6677 75.3213 43.4611L75.3877 43.3726C75.5353 43.1734 75.6681 42.9668 75.8009 42.7529C75.8378 42.6939 75.8747 42.6275 75.9116 42.5684C76.037 42.3545 76.1624 42.1405 76.2804 41.9118C76.3026 41.875 76.3173 41.8454 76.3321 41.8086C76.6124 41.2552 76.8559 40.6576 77.0551 40.0306L77.0772 39.9642C77.483 38.6583 77.7191 37.2049 77.7191 35.5671C77.7191 32.2915 76.5387 29.7019 74.7385 27.7468C74.7164 27.7247 74.7016 27.71 74.6869 27.6878C74.5467 27.5403 74.3991 27.3927 74.2516 27.2452L74.1631 27.1566C73.9913 26.9933 73.8142 26.8359 73.6319 26.6845C73.4843 26.5591 73.3368 26.441 73.1892 26.323C73.1523 26.2935 73.1154 26.2713 73.0859 26.2418L72.599 25.8877C72.5695 25.8729 72.5474 25.8508 72.5179 25.8361C71.9277 25.4377 71.3153 25.0835 70.6808 24.7811C70.6587 24.7663 70.6292 24.7589 70.6071 24.7442C70.4226 24.6556 70.2382 24.5745 70.0537 24.4933L69.8841 24.4196C69.7218 24.3532 69.5594 24.2868 69.3971 24.2277C69.3381 24.2056 69.2717 24.1835 69.2127 24.1613C69.0578 24.1023 68.9028 24.0507 68.7553 23.999L68.5561 23.9326C68.4012 23.881 68.2536 23.8367 68.0987 23.7925C68.0323 23.7703 67.9659 23.7556 67.8921 23.7334C67.7372 23.6892 67.5822 23.6523 67.4273 23.6154L67.2355 23.5711C67.0658 23.5342 66.8961 23.4974 66.7338 23.4605C66.6822 23.4531 66.6305 23.4383 66.5789 23.431C66.1436 23.335 65.7083 23.2686 65.2731 23.217C65.214 23.2096 65.155 23.2096 65.096 23.2022C64.9411 23.1875 64.7935 23.1727 64.6386 23.1654C64.5501 23.158 64.4689 23.158 64.3804 23.1506C64.2549 23.1432 64.1369 23.1358 64.0189 23.1358C63.923 23.1358 63.827 23.1285 63.7238 23.1285C63.6574 23.1285 63.591 23.1211 63.5319 23.1211H63.4582C63.1409 23.1211 62.8237 23.1358 62.5138 23.158C62.4548 23.1654 62.3958 23.1654 62.3368 23.1727C62.0195 23.2022 61.7097 23.2318 61.4146 23.2834C57.7922 23.8736 54.8633 25.777 53.0336 27.6362C51.9344 28.7502 51.2335 29.8495 51.0195 30.6389H51.0269C53.373 30.0413 56.4052 29.5175 59.7841 29.3404C64.3582 29.0232 68.1798 31.6275 67.9954 35.6261C67.9733 36.1057 67.9142 36.5557 67.8331 36.9762L67.8109 37.1016C67.7741 37.264 67.7298 37.4263 67.6855 37.5812C67.6634 37.655 67.6413 37.7287 67.6265 37.7951C67.5822 37.9279 67.538 38.0607 67.4863 38.1935C67.4568 38.2747 67.4199 38.3558 67.383 38.437C67.3314 38.555 67.2798 38.6657 67.2281 38.769C67.1839 38.8575 67.1396 38.9387 67.0879 39.0198C67.0363 39.1157 66.9773 39.2116 66.9183 39.3002C66.8592 39.3887 66.7928 39.4772 66.7338 39.5658C66.6822 39.6395 66.6305 39.7133 66.5715 39.7871C66.4756 39.9051 66.3723 40.0158 66.269 40.1191C66.2395 40.1486 66.21 40.1855 66.1805 40.215C66.0403 40.3552 65.8928 40.4806 65.7378 40.606C65.7083 40.6281 65.6714 40.6503 65.6419 40.6724C65.5164 40.77 65.3858 40.8611 65.2509 40.9454C65.2067 40.9675 65.1698 40.997 65.1255 41.0192C64.9927 41.1003 64.8599 41.1741 64.7271 41.2405C64.6828 41.2626 64.646 41.2847 64.6017 41.2995C64.4615 41.3659 64.314 41.4323 64.159 41.4913C64.1295 41.5061 64.0926 41.5208 64.0558 41.5282C63.8861 41.5946 63.7164 41.6536 63.5393 41.7053C63.5246 41.7126 63.5098 41.7126 63.4951 41.72C62.6983 41.9561 61.8425 42.0594 60.9719 42.0594C58.3455 42.0594 55.6232 41.0856 54.0591 39.6912C53.9299 39.5736 53.7617 39.5079 53.5869 39.5067C53.55 39.5067 53.5132 39.5215 53.4836 39.5289C53.4541 39.5363 53.4173 39.5363 53.3877 39.551C53.3435 39.5658 53.2992 39.5805 53.2549 39.6027C53.1812 39.6395 53.1221 39.6838 53.0631 39.7355C53.0484 39.7502 53.041 39.765 53.0262 39.7797C52.9746 39.8387 52.9303 39.9125 52.8934 39.9863C52.8861 40.001 52.8861 40.0084 52.8787 40.0232C52.8418 40.1191 52.8197 40.2297 52.8344 40.3478C53.0557 42.5758 54.4575 45.3646 57.7922 47.4598C60.9645 49.4591 67.6413 49.4813 72.3924 46.2277L72.5252 46.1392C72.6654 46.0359 72.813 45.9326 72.9531 45.8293C73.0122 45.7851 73.0786 45.7334 73.1376 45.6818C73.3442 45.5195 73.5433 45.3498 73.7352 45.1727L74.0229 44.9072C74.1262 44.826 74.2147 44.7301 74.3032 44.6416Z" fill="#577CFF"/>
<path d="M67.3352 80.296C67.236 80.2553 67.1318 80.228 67.0253 80.2148H60.1641C60.0609 80.2296 59.9576 80.2517 59.8543 80.296C59.2346 80.5468 58.8878 81.1961 59.1829 81.8748C59.478 82.5609 60.8429 84.4865 63.5947 84.4865C66.3466 84.4865 67.7114 82.5609 68.0065 81.8748C68.2943 81.1887 67.9549 80.5468 67.3352 80.296Z" fill="#DBA689"/>
<path d="M47.4506 80.971C50.0909 80.971 52.2313 78.7547 52.2313 76.0207C52.2313 73.2867 50.0909 71.0703 47.4506 71.0703C44.8103 71.0703 42.6699 73.2867 42.6699 76.0207C42.6699 78.7547 44.8103 80.971 47.4506 80.971Z" fill="#312D2D"/>
<path d="M79.7045 80.971C82.3448 80.971 84.4852 78.7547 84.4852 76.0207C84.4852 73.2867 82.3448 71.0703 79.7045 71.0703C77.0642 71.0703 74.9238 73.2867 74.9238 76.0207C74.9238 78.7547 77.0642 80.971 79.7045 80.971Z" fill="#312D2D"/>
<path d="M70.4662 90.5754C67.8102 92.1542 59.1047 92.1542 56.4561 90.5754C54.9289 89.6679 53.3723 91.0549 54.0067 92.4419C54.6264 93.8068 59.3776 96.9644 63.4869 96.9644C67.5889 96.9644 72.281 93.8068 72.9008 92.4419C73.5279 91.0549 71.9859 89.6679 70.4662 90.5754Z" fill="#444444"/>
<defs>
<linearGradient id="paint0_linear_1_83" x1="62.8325" y1="0" x2="62.8325" y2="125.665" gradientUnits="userSpaceOnUse">
<stop stop-color="#AFC1DC"/>
<stop offset="1" stop-color="#E2E5ED"/>
</linearGradient>
</defs>
</svg>
